<?xml version="1.0" encoding="utf-8"?>
<!-- Generator: Adobe Illustrator 26.0.2, SVG Export Plug-In . SVG Version: 6.00 Build 0)  -->
<svg version="1.1" id="Layer_1" xmlns="http://www.w3.org/2000/svg" xmlns:xlink="http://www.w3.org/1999/xlink" x="0px" y="0px"
	 viewBox="0 0 32 32" style="enable-background:new 0 0 32 32;" xml:space="preserve">
<style type="text/css">
	.st0{fill:#231F20;stroke:#231F20;stroke-width:0.7924;stroke-linecap:round;stroke-miterlimit:10;}
	.st1{fill:#231F20;stroke:#231F20;stroke-width:0.7585;stroke-linecap:round;stroke-miterlimit:10;}
	.st2{fill:none;stroke:#FFFFFF;stroke-width:1.242;stroke-miterlimit:10;}
	.st3{fill:#FFFFFF;stroke:#FFFFFF;stroke-width:1.4697;stroke-miterlimit:10;}
	.st4{fill:#231F20;}
</style>
<circle class="st0" cx="16" cy="15.95" r="13.27"/>
<polygon class="st1" points="17.54,3.25 14.46,3.25 14.87,0.46 17.13,0.46 "/>
<polygon class="st1" points="17.54,28.68 14.46,28.68 14.87,31.46 17.13,31.46 "/>
<polygon class="st1" points="28.72,17.5 28.72,14.43 31.5,14.84 31.5,17.09 "/>
<polygon class="st1" points="3.28,17.5 3.28,14.43 0.5,14.84 0.5,17.09 "/>
<polygon class="st1" points="8.09,5.89 5.92,8.06 4.24,5.8 5.84,4.21 "/>
<polygon class="st1" points="26.08,23.87 23.91,26.04 26.16,27.72 27.76,26.13 "/>
<polygon class="st1" points="5.92,23.87 8.09,26.04 5.84,27.72 4.24,26.13 "/>
<polygon class="st1" points="23.91,5.89 26.08,8.06 27.76,5.8 26.16,4.21 "/>
<polygon class="st1" points="22.3,4.81 19.46,3.63 20.91,1.22 22.99,2.08 "/>
<polygon class="st1" points="12.54,28.3 9.7,27.12 9.01,29.85 11.09,30.71 "/>
<polygon class="st1" points="12.45,3.66 9.62,4.86 8.91,2.14 10.98,1.26 "/>
<polygon class="st1" points="22.38,27.07 19.55,28.27 21.02,30.67 23.09,29.79 "/>
<polygon class="st1" points="28.33,12.51 27.16,9.67 29.89,8.99 30.75,11.07 "/>
<polygon class="st1" points="4.84,22.26 3.67,19.42 1.25,20.86 2.11,22.94 "/>
<polygon class="st1" points="4.88,9.61 3.69,12.44 1.28,10.98 2.16,8.9 "/>
<polygon class="st1" points="28.31,19.49 27.12,22.32 29.84,23.03 30.72,20.95 "/>
<line class="st2" x1="16.01" y1="3.62" x2="16.01" y2="28.14"/>
<line class="st2" x1="5.61" y1="22.37" x2="26.41" y2="9.4"/>
<line class="st2" x1="5.56" y1="9.53" x2="26.53" y2="22.24"/>
<line class="st2" x1="16.01" y1="6.93" x2="13.17" y2="5.57"/>
<line class="st2" x1="18.89" y1="5.57" x2="16.05" y2="6.93"/>
<line class="st2" x1="16.01" y1="10.02" x2="12.32" y2="7.47"/>
<line class="st2" x1="19.74" y1="7.47" x2="16.05" y2="10.02"/>
<line class="st2" x1="16.01" y1="25.47" x2="13.17" y2="26.83"/>
<line class="st2" x1="18.89" y1="26.83" x2="16.05" y2="25.47"/>
<line class="st2" x1="16.01" y1="22.38" x2="12.32" y2="24.93"/>
<line class="st2" x1="19.74" y1="24.93" x2="16.05" y2="22.38"/>
<line class="st2" x1="8.2" y1="11.26" x2="5.53" y2="12.93"/>
<line class="st2" x1="8.58" y1="8.11" x2="8.22" y2="11.23"/>
<line class="st2" x1="10.8" y1="12.92" x2="6.67" y2="14.67"/>
<line class="st2" x1="10.65" y1="8.4" x2="10.82" y2="12.88"/>
<line class="st2" x1="24.06" y1="20.93" x2="23.69" y2="24.06"/>
<line class="st2" x1="26.75" y1="19.23" x2="24.08" y2="20.9"/>
<line class="st2" x1="21.45" y1="19.28" x2="21.63" y2="23.76"/>
<line class="st2" x1="25.6" y1="17.49" x2="21.48" y2="19.24"/>
<line class="st2" x1="8.01" y1="20.88" x2="8.33" y2="24.01"/>
<line class="st2" x1="5.33" y1="19.15" x2="7.99" y2="20.85"/>
<line class="st2" x1="10.63" y1="19.27" x2="10.4" y2="23.74"/>
<line class="st2" x1="6.5" y1="17.42" x2="10.61" y2="19.23"/>
<line class="st2" x1="23.96" y1="11.1" x2="26.61" y2="12.8"/>
<line class="st2" x1="23.61" y1="7.93" x2="23.94" y2="11.07"/>
<line class="st2" x1="21.34" y1="12.72" x2="25.44" y2="14.52"/>
<line class="st2" x1="21.55" y1="8.2" x2="21.31" y2="12.68"/>
<circle class="st3" cx="16.03" cy="15.88" r="2.41"/>
<circle class="st4" cx="16.03" cy="15.88" r="1.5"/>
</svg>
