<?xml version="1.0" standalone="no"?>
<!DOCTYPE svg PUBLIC "-//W3C//DTD SVG 20010904//EN"
 "http://www.w3.org/TR/2001/REC-SVG-20010904/DTD/svg10.dtd">
<svg version="1.0" xmlns="http://www.w3.org/2000/svg"
 width="700.000000pt" height="700.000000pt" viewBox="0 0 700.000000 700.000000"
 preserveAspectRatio="xMidYMid meet">
<metadata>
Created by potrace 1.14, written by Peter Selinger 2001-2017
</metadata>
<g transform="translate(0.000000,700.000000) scale(0.100000,-0.100000)"
fill="#000000" stroke="none">
<path d="M3203 6982 c-13 -2 -23 -9 -24 -15 0 -7 -2 -21 -4 -32 -3 -11 -7 -38
-10 -60 -3 -22 -7 -56 -10 -75 -9 -59 -34 -223 -40 -270 -8 -56 -11 -60 -39
-60 -13 0 -79 -12 -147 -26 -157 -32 -150 -31 -192 -42 l-36 -10 -48 80 c-54
90 -62 103 -153 251 l-64 105 -31 -12 c-16 -7 -145 -62 -285 -121 -140 -59
-258 -111 -262 -114 -3 -3 4 -46 18 -96 13 -49 26 -99 28 -110 2 -11 19 -74
36 -140 18 -66 34 -127 36 -135 3 -10 -26 -34 -83 -70 -48 -30 -113 -74 -144
-97 -31 -24 -62 -43 -68 -43 -6 0 -101 67 -211 149 l-200 149 -226 -224 -225
-225 108 -145 c188 -253 197 -266 187 -279 -5 -7 -51 -76 -103 -152 l-94 -140
-111 29 c-61 16 -170 44 -242 63 -71 19 -133 35 -136 35 -3 0 -13 -19 -23 -42
-9 -24 -23 -56 -30 -73 -8 -16 -26 -59 -40 -95 -15 -36 -33 -78 -40 -95 -41
-93 -115 -270 -115 -276 0 -3 69 -48 153 -99 83 -51 182 -111 219 -133 60 -37
65 -43 57 -64 -5 -13 -11 -34 -13 -46 -2 -12 -16 -79 -30 -149 -14 -70 -26
-139 -26 -153 0 -14 -3 -25 -7 -26 -5 0 -17 -2 -28 -4 -11 -2 -47 -7 -80 -10
-33 -4 -62 -8 -65 -10 -3 -2 -30 -6 -60 -10 -30 -3 -62 -8 -70 -10 -8 -2 -40
-7 -70 -10 -30 -4 -73 -10 -94 -14 l-40 -6 0 -318 c-1 -295 0 -317 17 -318 9
-1 20 -2 25 -3 4 -1 32 -6 62 -10 30 -5 62 -10 70 -11 8 -2 51 -8 95 -15 44
-6 90 -13 101 -15 12 -2 47 -6 78 -10 31 -4 58 -10 60 -14 2 -3 7 -26 10 -51
3 -25 8 -54 10 -65 19 -90 39 -183 43 -200 3 -11 7 -29 10 -40 4 -18 -26 -39
-211 -149 -119 -70 -218 -131 -220 -135 -4 -6 9 -39 139 -351 43 -102 82 -197
88 -211 l10 -26 96 24 c53 14 103 26 111 28 8 2 78 19 155 39 77 19 140 34
141 33 1 -1 25 -40 54 -86 29 -47 74 -115 101 -152 27 -37 49 -72 49 -78 0 -6
-68 -102 -151 -213 l-151 -201 224 -224 c122 -122 225 -223 228 -223 3 0 95
68 205 150 110 82 205 150 210 150 6 0 21 -10 35 -21 26 -21 154 -107 230
-154 25 -15 46 -29 47 -30 2 -1 -16 -73 -38 -161 -22 -87 -43 -168 -45 -179
-2 -11 -12 -52 -22 -92 l-19 -71 291 -121 c287 -119 291 -120 306 -100 9 11
66 104 128 207 62 103 116 193 121 200 6 11 20 10 74 -2 78 -18 101 -23 222
-45 l90 -16 7 -40 c4 -22 9 -60 13 -85 3 -25 14 -103 25 -175 11 -72 21 -143
24 -160 2 -16 5 -34 5 -40 1 -6 115 -10 321 -10 278 0 320 2 321 15 0 8 2 22
4 30 4 23 13 79 21 145 4 33 8 62 9 65 1 3 5 30 9 60 5 30 10 62 11 70 1 8 6
39 10 67 4 29 10 55 14 58 4 2 39 9 77 15 110 17 117 19 221 44 54 13 98 23
99 22 1 0 59 -95 129 -211 70 -116 131 -214 136 -219 4 -4 94 29 201 74 106
45 209 89 228 97 19 8 47 21 62 29 14 8 32 14 40 14 7 0 23 7 34 15 l21 14
-43 168 c-24 92 -53 204 -65 248 -19 75 -20 81 -4 90 47 28 214 140 238 161
33 28 46 29 72 9 73 -57 381 -285 385 -285 3 0 106 101 228 223 l224 224 -134
179 c-73 98 -143 192 -154 208 l-21 29 49 66 c28 36 73 103 101 149 27 45 55
82 61 82 6 0 114 -27 240 -60 126 -33 235 -60 242 -60 6 0 27 35 44 77 18 43
41 96 51 118 36 80 159 376 159 383 0 4 -60 43 -133 86 -72 44 -171 103 -218
133 l-86 52 20 78 c10 43 29 132 41 198 l23 120 43 7 c23 4 64 10 89 13 25 3
55 7 67 9 12 2 45 7 75 11 30 4 56 8 59 10 3 2 37 6 75 10 39 4 77 11 85 15
13 7 15 52 14 319 0 171 -2 313 -5 315 -2 2 -29 7 -59 10 -30 4 -66 9 -80 11
-14 3 -41 7 -60 10 -19 3 -46 7 -60 10 -14 3 -45 7 -70 10 -25 3 -52 7 -60 10
-8 2 -37 6 -65 10 -27 3 -50 7 -51 8 -1 1 -4 22 -7 47 -3 25 -18 104 -32 175
-15 72 -28 136 -29 144 -1 14 67 58 302 196 73 43 131 83 129 89 -3 6 -58 138
-122 294 -94 226 -121 282 -134 278 -108 -33 -486 -117 -488 -109 -3 9 -172
264 -197 298 -6 9 29 65 115 181 68 93 126 171 129 174 3 3 16 20 29 38 l23
33 -227 224 -227 224 -73 -57 c-149 -115 -324 -242 -334 -242 -6 0 -46 26 -90
58 -44 31 -113 78 -154 104 l-75 46 62 247 c55 217 60 247 46 255 -35 19 -554
230 -564 230 -12 -1 -21 -14 -166 -257 -89 -150 -105 -172 -124 -168 -85 20
-156 35 -186 40 -19 3 -42 8 -50 10 -8 2 -37 7 -65 11 -27 3 -53 9 -57 12 -4
4 -19 88 -33 187 -14 99 -28 192 -30 206 -3 14 -7 43 -10 64 -2 21 -7 40 -9
42 -5 6 -579 10 -613 5z"/>
</g>
</svg>
